# xmcd
#
# Track frame offsets: 
#        150
#        14445
#        27134
#        41938
#        54792
#        72682
#        85538
#        102177
#        115040
#        128710
#
# Disc length: 1941 seconds
#
# Revision: 1
# Processed by: cddbd v1.5.2PL0 Copyright (c) Steve Scherf et al.
# Submitted via: ExactAudioCopyFreeDBPlugin 1.0
#
DISCID=7a07930a
DTITLE=Merle Haggard - The Way I Am
DYEAR=1994
DGENRE=Country
TTITLE0=Always Wanting You
TTITLE1=If We Make It Through December
TTITLE2=I'm A Lonesome Fugitive
TTITLE3=I'm Always On A Mountain (When I Fall)
TTITLE4=I Think I'll Just Stay Here And Drink
TTITLE5=It's Been A Great Afternoon
TTITLE6=Ramblin' Fever
TTITLE7=Silver Wings
TTITLE8=The Way I Am
TTITLE9=Today I Started Loving You Again
EXTD=YEAR: 1994
EXTT0=
EXTT1=
EXTT2=
EXTT3=
EXTT4=
EXTT5=
EXTT6=
EXTT7=
EXTT8=
EXTT9=
PLAYORDER=
